<svg width="102" height="102" viewBox="0 0 102 102" fill="none" xmlns="http://www.w3.org/2000/svg">
<g clip-path="url(#clip0_3828_89)">
<path d="M0 26.9434C0 12.0629 12.0629 0 26.9433 0H75.0564C89.9366 0 102 12.0629 102 26.9434V75.0563C102 89.9371 89.9366 102 75.0564 102H26.9433C12.0629 102 0 89.9371 0 75.0563V26.9434Z" fill="#5152F9"/>
<path d="M66.2543 78.9033V68.9996C65.9067 70.0423 64.908 71.4757 63.2575 73.3C61.6503 75.1243 59.4351 76.7753 56.6116 78.2521C53.8317 79.7288 50.5305 80.4672 46.708 80.4672C41.7129 80.4672 37.2172 79.2725 33.221 76.8836C29.2249 74.4947 26.0758 71.1715 23.7735 66.915C21.4713 62.658 20.3203 57.7497 20.3203 52.1897C20.3203 46.6303 21.4713 41.7219 23.7735 37.465C26.0758 33.2083 29.2249 29.8855 33.221 27.4964C37.2172 25.064 41.7129 23.8477 46.708 23.8477C50.4435 23.8477 53.6796 24.4993 56.4161 25.8024C59.1526 27.1055 61.346 28.6039 62.9965 30.2981C64.6909 31.9921 65.7335 33.4689 66.1244 34.7286V25.4113H79.9369V78.9033H66.2543ZM34.0679 52.1897C34.0679 55.6218 34.8281 58.6186 36.3485 61.1812C37.8687 63.7444 39.845 65.7203 42.2776 67.1104C44.7535 68.5006 47.403 69.1956 50.2265 69.1956C53.267 69.1956 55.96 68.4789 58.3054 67.0455C60.6943 65.612 62.5624 63.6356 63.9087 61.1163C65.2988 58.5536 65.9939 55.5779 65.9939 52.1897C65.9939 48.8021 65.2988 45.8483 63.9087 43.329C62.5624 40.7662 60.6943 38.7681 58.3054 37.3347C55.96 35.8579 53.267 35.1194 50.2265 35.1194C47.403 35.1194 44.7535 35.8361 42.2776 37.2697C39.845 38.6596 37.8687 40.6359 36.3485 43.1987C34.8281 45.7615 34.0679 48.7582 34.0679 52.1897Z" fill="white"/>
<path d="M101.997 25.0176H92.375V78.9043H101.997V25.0176Z" fill="white"/>
<path d="M92.297 51.8457H80.9023V87.7388H92.297V51.8457Z" fill="#5152F9"/>
</g>
<defs>
<clipPath id="clip0_3828_89">
<rect width="102" height="102" rx="42.08" fill="white"/>
</clipPath>
</defs>
</svg>
