<svg width="48" height="35" viewBox="0 0 48 35" fill="none" xmlns="http://www.w3.org/2000/svg">
<path d="M47.8529 8.26557C46.404 5.01187 34.5495 7.1322 21.3763 13.0006C17.6834 14.6452 14.2779 16.4103 11.3218 18.1707C11.2498 17.2491 11.2642 16.3233 11.3638 15.4036C11.5312 14.3662 11.8072 13.3516 12.1906 12.3736C12.6082 11.4497 13.12 10.5725 13.7187 9.75352C14.3697 8.94955 15.1023 8.21697 15.9063 7.56599C16.7282 6.96481 17.609 6.45062 18.5372 6.03123C19.5158 5.64665 20.5309 5.36945 21.5689 5.20326C22.3699 5.11686 23.1757 5.09646 23.9808 5.14026C24.6138 5.17446 25.35 4.83067 25.7898 4.39088C26.2332 3.9469 26.5674 3.21912 26.5392 2.58194C26.5098 1.92016 26.292 1.23438 25.7898 0.772993C25.2744 0.299608 24.6852 0.0620147 23.9808 0.0236159C19.1108 -0.241576 14.1807 1.74016 10.8364 5.28906C9.11268 7.1178 7.82872 9.28014 7.01994 11.6567C6.00837 14.6284 5.91477 17.9127 6.62395 20.9612C6.64195 21.0386 6.66055 21.1154 6.67975 21.1922C1.93689 24.5989 -0.662227 27.7014 0.145949 29.5163C1.01772 31.4735 5.65618 31.4855 12.0826 29.9069C13.1356 30.8159 14.2983 31.5923 15.5439 32.1982C17.9036 33.3478 20.4619 33.9874 23.0941 34.0012C25.7304 34.015 28.2935 33.3808 30.664 32.2492C31.8376 31.6889 32.8852 30.9581 33.9039 30.1547C34.7427 29.4935 35.5083 28.7393 36.1827 27.9102C37.9592 25.7244 39.2798 23.1859 39.8108 20.4002C39.9721 19.5518 40.0861 18.6867 40.1353 17.8239C40.1425 17.6967 40.1335 17.5653 40.1125 17.4327C45.6144 13.699 48.7283 10.2281 47.8541 8.26557H47.8529ZM5.2272 28.8995C4.83301 28.0152 5.91417 26.5554 8.05671 24.8143C8.92248 26.4762 10.0648 28.002 11.4172 29.3009C7.99011 29.9927 5.67898 29.9141 5.2272 28.8995ZM44.0748 12.0755C44.0304 13.0576 42.7615 14.4994 40.5973 16.1655C40.5007 16.2393 40.4023 16.3149 40.3009 16.3905C40.2559 16.4247 40.2115 16.4583 40.1659 16.4913C40.0705 16.5627 39.9715 16.6347 39.8719 16.7073C39.7412 16.4433 39.5714 16.2015 39.3842 16.0149C38.9408 15.5715 38.2124 15.2374 37.5752 15.2656C36.9134 15.295 36.2277 15.5127 35.7663 16.0149C35.2923 16.5315 35.0571 17.1189 35.0169 17.8239C35.0025 18.0801 34.9797 18.3351 34.9521 18.5901C34.7853 19.6286 34.5093 20.6444 34.1259 21.6236C33.7065 22.5499 33.1948 23.4289 32.5948 24.2497C31.9438 25.0531 31.2118 25.7844 30.4084 26.4354C29.5853 27.0372 28.7033 27.552 27.7745 27.972C26.7995 28.3548 25.788 28.6313 24.7536 28.7975C23.6928 28.9121 22.6237 28.9109 21.5623 28.7963C20.5219 28.6296 19.5038 28.3518 18.5228 27.9666C17.6 27.549 16.7246 27.0378 15.9075 26.4396C15.1047 25.7892 14.3733 25.0573 13.7229 24.2545C13.1716 23.5009 12.6934 22.6981 12.2938 21.854C15.2037 20.0474 18.833 18.1323 22.8613 16.3383C28.6799 13.7464 34.1313 11.9405 38.051 11.1803C41.1343 10.5821 43.2702 10.6307 43.89 11.4545C43.932 11.5097 43.9668 11.5685 43.9944 11.6309C44.0514 11.7593 44.0778 11.8997 44.0736 12.0515C44.0736 12.0593 44.0736 12.0677 44.0736 12.0761L44.0748 12.0755Z" fill="url(#paint0_linear_58_6003)"/>
<path opacity="0.8" d="M40.1307 17.4195C40.0899 17.1741 40.0041 16.9263 39.8889 16.6959C39.9831 16.6269 40.0761 16.5591 40.1667 16.4913C40.2117 16.4577 40.2573 16.4241 40.3017 16.3905C40.4031 16.3149 40.5015 16.2399 40.5981 16.1655C43.0394 14.2942 44.0588 12.9754 44.0756 12.0755C44.0756 12.0671 44.0756 12.0587 44.0756 12.0509C44.0756 11.8265 44.0114 11.6285 43.892 11.4539C41.7392 8.32859 21.3765 13.0006 21.3765 13.0006C34.5503 7.13222 46.4041 5.01249 47.8531 8.26559C48.7266 10.2263 45.6205 13.6906 40.1313 17.4195H40.1307Z" fill="url(#paint1_linear_58_6003)"/>
<path d="M31.0574 0.315796C29.6463 0.315796 28.6509 1.689 28.6509 2.96873V5.93202C28.6509 6.37513 29.0101 6.73434 29.4532 6.73434C29.8963 6.73434 30.2555 6.37513 30.2555 5.93202V5.1297H31.8602V5.93202C31.8602 6.37513 32.2194 6.73434 32.6625 6.73434C33.1056 6.73434 33.4648 6.37513 33.4648 5.93202V2.96873C33.4648 1.66449 32.4686 0.315796 31.0574 0.315796ZM31.8594 3.52507H30.2555V2.72275C30.2555 2.27964 30.6147 1.92043 31.0578 1.92043C31.5009 1.92043 31.8602 2.27964 31.8602 2.72275V3.52507H31.8594ZM35.1133 1.14592C35.1133 0.687438 35.485 0.315796 35.9435 0.315796C36.402 0.315796 36.7737 0.6875 36.7737 1.14602V5.90382C36.7737 6.36251 36.4019 6.73434 35.9432 6.73434C35.4845 6.73434 35.1126 6.36244 35.1127 5.90372L35.1133 1.14592Z" fill="url(#paint2_linear_58_6003)"/>
<path d="M33.6264 15.1774C33.6264 15.1774 32.2572 22.9321 25.241 25.1881C23.7033 25.6369 22.3191 25.7844 21.1407 25.7478C18.8788 25.6777 17.3741 24.9289 16.9895 24.3271C16.4057 23.4121 17.3057 21.941 21.2649 20.3618C25.163 18.8079 33.3648 15.2896 33.6198 15.1804C33.624 15.1786 33.6258 15.1774 33.6258 15.1774H33.6264Z" fill="url(#paint3_linear_58_6003)"/>
<path d="M33.6264 15.1774C33.6264 15.1774 32.2573 22.9321 25.2411 25.1881C23.7033 25.6369 22.3192 25.7844 21.1408 25.7478C18.5411 23.5693 33.2808 15.3694 33.6204 15.1804C33.6246 15.1786 33.6264 15.1774 33.6264 15.1774Z" fill="url(#paint4_linear_58_6003)"/>
<defs>
<linearGradient id="paint0_linear_58_6003" x1="44.4348" y1="6.19983" x2="-1.3576" y2="29.4503" gradientUnits="userSpaceOnUse">
<stop offset="0.13" stop-color="#FFB91D"/>
<stop offset="0.88" stop-color="#FF5A12"/>
</linearGradient>
<linearGradient id="paint1_linear_58_6003" x1="45.5797" y1="9.56995" x2="24.2072" y2="17.5449" gradientUnits="userSpaceOnUse">
<stop offset="0.04" stop-color="#FFE3C7"/>
<stop offset="0.84" stop-color="#FF9A15"/>
</linearGradient>
<linearGradient id="paint2_linear_58_6003" x1="30.0893" y1="0.300796" x2="33.7192" y2="6.54061" gradientUnits="userSpaceOnUse">
<stop stop-color="#FFB91D"/>
<stop offset="1" stop-color="#FF5A12"/>
</linearGradient>
<linearGradient id="paint3_linear_58_6003" x1="17.9818" y1="25.4701" x2="32.5068" y2="18.1275" gradientUnits="userSpaceOnUse">
<stop stop-color="#FFD6A9"/>
<stop offset="0.83" stop-color="#FF791F"/>
</linearGradient>
<linearGradient id="paint4_linear_58_6003" x1="34.8546" y1="13.7032" x2="22.0852" y2="26.6322" gradientUnits="userSpaceOnUse">
<stop offset="0.13" stop-color="#FFB91D"/>
<stop offset="0.88" stop-color="#FF5A12"/>
</linearGradient>
</defs>
</svg>
