<?xml version="1.0" encoding="utf-8"?>
<!-- Generator: Adobe Illustrator 23.0.6, SVG Export Plug-In . SVG Version: 6.00 Build 0)  -->
<svg version="1.1" id="图层_1" xmlns="http://www.w3.org/2000/svg" xmlns:xlink="http://www.w3.org/1999/xlink" x="0px" y="0px"
	 viewBox="0 0 46 46" style="enable-background:new 0 0 46 46;" xml:space="preserve">
<style type="text/css">
	.st0{fill-rule:evenodd;clip-rule:evenodd;fill:#FC4262;}
	.st1{fill-rule:evenodd;clip-rule:evenodd;fill:url(#Fill-3_1_);}
</style>
<title>编组</title>
<desc>Created with Sketch.</desc>
<g id="页面-1">
	<g id="PDF首页" transform="translate(-21.000000, -22.000000)">
		<g id="编组-3" transform="translate(20.461988, 21.611597)">
			<g id="编组">
				<path id="Fill-1" class="st0" d="M39.3,9.9c0.8-0.3,0.4-0.1,1.1-0.5c0.2-0.1,0.7-0.4,1.3-0.6c1-0.4,1.4-0.1,0.9,0.8
					c-0.2,0.4-0.4,0.7-0.6,0.9c-0.3,0.5-0.6,0.9-0.8,1.4c-0.2,0.4,0,0.9,0.4,1c0.5,0.2,1,0.6,1.3,0.2c0,0,0.3-0.5,0.4-0.9
					c0.5-1.5,0.8-1.9,1.3-4.5c0.1-0.4-0.3-0.8-0.9-0.7c-2.4,0.3-3.9,0.8-6,1.5c-0.1,0,0.1,0.5,0.1,0.5c-0.4,0.1-0.5-0.1-0.6,0.2
					c-0.1,0.7,1.4,0.7,2,0.6C39.2,10,39.3,9.9,39.3,9.9"/>
				
					<linearGradient id="Fill-3_1_" gradientUnits="userSpaceOnUse" x1="-63.8362" y1="169.419" x2="-64.798" y2="168.9402" gradientTransform="matrix(41.1696 0 0 -30.8772 2671.5227 5249.9512)">
					<stop  offset="0" style="stop-color:#035EFE"/>
					<stop  offset="1" style="stop-color:#028DFD"/>
				</linearGradient>
				<path id="Fill-3" class="st1" d="M35.1,9.3c-2,0.7-3.8,3-3.9,5.5l0,0c-5.4-1.4-14.2,1.7-15.7,7l0,0c-0.4,1.6,0.9,2.9,2.6,3l0,0
					c1.5,0.1,3.5-0.2,4.1,0.7l0,0c0.4,0.5,0.3,1.2,0,1.8l0,0c-1.6,3.5-5.8,5.5-7.8,6.5l0,0c-0.1,0.1,0,0.3,0.1,0.2l0,0
					c3.8-1.2,7.5-3.4,9.3-6.8l0,0c0.4-0.7,0.8-1.6,0.8-2.3l0,0c0-0.9-0.5-1.4-1.3-1.5l0,0c-0.3-0.1-0.7-0.1-1.1-0.1l0,0
					c-0.6,0-1.2,0-1.8-0.1l0,0c-0.7-0.2-1.6-0.6-1.7-1.2l0,0c-0.2-1.1,0.6-1.9,1.1-2.4l0,0c2.7-2.6,8.3-4.1,10.9-2.9l0,0
					c0.7,0.4,1.4,0.7,2.2-0.1l0,0c0.8-0.9,0.1-1.3,0.2-2.6l0,0c0.2-1.8,3.5-4.6,6.8-2.9l0,0c1.4,0.7,1.9,2.6,1.6,4.5l0,0
					c-0.9,5.1-2.7,8.9-6.1,12.9l0,0c-3.9,4.5-8.9,6.9-14.7,8.5l0,0c-5.8,1.5-12.3,1.3-18.2,0.3l0,0c3.5,1.8,7.5,2.4,11.4,2.4l0,0H14
					c1.5,0,3-0.1,4.6-0.2l0,0c5-0.4,10-2.3,14.2-5.1l0,0c5.6-3.9,11.1-12,10.9-19.2l0,0c-0.1-3.9-2.6-6.3-6.1-6.3l0,0
					C36.8,8.9,35.9,9,35.1,9.3"/>
			</g>
		</g>
	</g>
</g>
</svg>
