<svg width="148" height="59" viewBox="0 0 148 59" fill="none" xmlns="http://www.w3.org/2000/svg">
    <path
        d="M0.984995 33V32.1449C2.28808 32.1449 3.22466 32.0634 3.79476 31.9005C4.39201 31.7376 4.77207 31.4526 4.93496 31.0454C5.12499 30.6382 5.22 29.9866 5.22 29.0908V4.33224C5.22 3.43638 5.12499 2.78484 4.93496 2.37763C4.77207 1.97041 4.39201 1.68536 3.79476 1.52248C3.22466 1.35959 2.28808 1.27815 0.984995 1.27815V0.423007H10.5138C13.5 0.423007 16.2012 1.07455 18.6173 2.37763C21.0606 3.6807 22.988 5.58103 24.3997 8.0786C25.8114 10.5762 26.5172 13.5488 26.5172 16.9966C26.5172 20.2543 25.8657 23.0912 24.5626 25.5073C23.2867 27.9234 21.4814 29.783 19.1467 31.0861C16.8391 32.362 14.1515 33 11.0839 33H0.984995ZM10.7174 31.6155C13.6222 31.6155 16.0519 30.9775 18.0065 29.7016C19.9882 28.3985 21.4542 26.6611 22.4044 24.4893C23.3545 22.3175 23.8296 19.8742 23.8296 17.1594C23.8296 14.1461 23.2595 11.4856 22.1193 9.17807C21.0063 6.84339 19.4589 5.03808 17.4771 3.76215C15.5225 2.45907 13.3235 1.80753 10.8803 1.80753C9.98439 1.80753 9.22426 1.8754 8.59987 2.01113C8.02977 2.11972 7.74472 2.48622 7.74472 3.11061V29.8645C7.74472 30.5432 7.97548 31.0047 8.43698 31.249C8.92564 31.4933 9.68577 31.6155 10.7174 31.6155ZM36.8884 10.8884C37.4585 10.8884 37.9064 11.0377 38.2322 11.3363C38.5851 11.6078 38.7616 11.9878 38.7616 12.4765C38.7616 13.0194 38.6123 13.4674 38.3136 13.8203C38.015 14.1461 37.6757 14.3089 37.2956 14.3089C37.0241 14.3089 36.807 14.2547 36.6441 14.1461C36.4812 14.0375 36.2912 13.8746 36.074 13.6574C35.8568 13.4402 35.6803 13.2909 35.5446 13.2095C35.4089 13.128 35.2324 13.0873 35.0152 13.0873C34.5266 13.0873 34.0108 13.4267 33.4678 14.1053C32.952 14.7569 32.4226 15.7478 31.8797 17.078V29.0093C31.8797 29.9323 31.9611 30.611 32.124 31.0454C32.3141 31.4526 32.6805 31.7376 33.2235 31.9005C33.7936 32.0363 34.6895 32.1041 35.9111 32.1041V33H27.0339V32.1449C27.8211 32.1449 28.3912 32.0634 28.7442 31.9005C29.1242 31.7376 29.3685 31.4526 29.4771 31.0454C29.6129 30.6382 29.6807 29.9866 29.6807 29.0908V15.5306C29.6807 14.5261 29.64 13.861 29.5586 13.5352C29.4771 13.1823 29.26 13.0059 28.907 13.0059C28.6084 13.0059 28.079 13.1552 27.3189 13.4538L26.9931 12.6801L31.391 10.8884L31.8797 11.3363V14.9605H32.0019C32.5991 13.7389 33.3185 12.7615 34.1601 12.0286C35.0288 11.2684 35.9382 10.8884 36.8884 10.8884ZM51.201 24.4078C50.8752 27.5026 50.1286 29.8237 48.9613 31.3712C47.794 32.8914 46.3551 33.6515 44.6448 33.6515C43.2875 33.6515 42.1066 33.19 41.1021 32.267C40.0976 31.3169 39.3239 30.0138 38.781 28.3578C38.2652 26.6746 38.0073 24.7607 38.0073 22.6161C38.0073 20.4443 38.2788 18.4761 38.8217 16.7115C39.3647 14.9198 40.1519 13.5081 41.1835 12.4765C42.2151 11.4177 43.4232 10.8884 44.8077 10.8884C46.7352 10.8884 48.2419 11.8114 49.3278 13.6574C50.4137 15.5034 50.9566 17.9739 50.9566 21.0687H40.3691V21.8424C40.3691 24.6114 40.8171 26.9325 41.7129 28.8057C42.6088 30.6517 43.8304 31.5748 45.3778 31.5748C46.4637 31.5748 47.4546 31.0318 48.3505 29.9459C49.2463 28.8329 49.9115 26.9868 50.3458 24.4078H51.201ZM44.8485 12.2729C43.5997 12.2729 42.5952 12.9651 41.8351 14.3497C41.1021 15.7342 40.6406 17.5124 40.4506 19.6842H48.5541C48.5541 17.5938 48.2555 15.8428 47.6582 14.4311C47.061 12.9923 46.1244 12.2729 44.8485 12.2729ZM67.5159 28.6835C67.4616 31.9955 66.4843 33.6515 64.5839 33.6515C63.6609 33.6515 62.9415 33.285 62.4257 32.5521C61.9371 31.7919 61.6927 30.6653 61.6927 29.1722V27.5434C61.1498 29.5523 60.3761 31.0725 59.3716 32.1041C58.3672 33.1357 57.1998 33.6515 55.8696 33.6515C54.5665 33.6515 53.5485 33.2036 52.8155 32.3077C52.0825 31.3847 51.716 30.2581 51.716 28.9279C51.716 27.3805 52.1911 26.0367 53.1413 24.8965C54.1186 23.7291 55.2181 22.7925 56.4397 22.0867C57.6613 21.3809 59.4123 20.4714 61.6927 19.3584V17.0373C61.6927 15.327 61.3941 14.1053 60.7969 13.3724C60.2268 12.6122 59.3716 12.2322 58.2314 12.2322C57.3356 12.2322 56.589 12.4493 55.9918 12.8837C55.4217 13.2909 55.1366 13.861 55.1366 14.594C55.1366 14.8655 55.2316 15.2591 55.4217 15.7749C55.6117 16.155 55.7067 16.4943 55.7067 16.7929C55.7067 17.2273 55.5845 17.5802 55.3402 17.8517C55.0959 18.096 54.7565 18.2182 54.3222 18.2182C53.7792 18.2182 53.3585 18.0146 53.0598 17.6074C52.7884 17.2002 52.6526 16.6572 52.6526 15.9785C52.6526 15.0284 52.9105 14.1732 53.4263 13.4131C53.9693 12.6258 54.6887 12.0014 55.5845 11.5399C56.5076 11.0784 57.5256 10.8476 58.6386 10.8476C60.2403 10.8476 61.5163 11.3634 62.4664 12.3951C63.4437 13.3995 63.9324 14.9333 63.9324 16.9966V29.498C63.9324 30.5296 64.0274 31.249 64.2174 31.6562C64.4346 32.0363 64.7333 32.2263 65.1133 32.2263C66.1178 32.2263 66.6336 31.0454 66.6607 28.6835H67.5159ZM56.5619 31.5748C57.5663 31.5748 58.5165 31.0725 59.4123 30.0681C60.3354 29.0365 61.0955 27.4755 61.6927 25.3851V20.5393C59.9824 21.4623 58.6386 22.236 57.6613 22.8604C56.684 23.4848 55.8424 24.2585 55.1366 25.1815C54.4308 26.1045 54.0779 27.1633 54.0779 28.3578C54.0779 29.3079 54.2815 30.0816 54.6887 30.6789C55.123 31.2761 55.7474 31.5748 56.5619 31.5748ZM90.2778 29.0908C90.2778 29.9866 90.3321 30.6382 90.4407 31.0454C90.5764 31.4526 90.8207 31.7376 91.1736 31.9005C91.5266 32.0634 92.0967 32.1449 92.8839 32.1449V33H85.5134V32.1449C86.2735 32.1449 86.83 32.0634 87.183 31.9005C87.5359 31.7376 87.7666 31.4526 87.8752 31.0454C87.9838 30.6382 88.0381 29.9866 88.0381 29.0908V16.4672C88.0381 14.1053 87.183 12.9244 85.4727 12.9244C84.6582 12.9244 83.8845 13.1823 83.1516 13.6981C82.4186 14.2139 81.672 14.9741 80.9119 15.9785V16.345V29.0908C80.9119 29.9866 80.9662 30.6382 81.0748 31.0454C81.1834 31.4526 81.4141 31.7376 81.767 31.9005C82.1199 32.0634 82.6765 32.1449 83.4366 32.1449V33H76.1475V32.1449C76.9076 32.1449 77.4642 32.0634 77.8171 31.9005C78.17 31.7376 78.4007 31.4526 78.5093 31.0454C78.6179 30.6382 78.6722 29.9866 78.6722 29.0908V16.4672C78.6722 14.1053 77.8171 12.9244 76.1068 12.9244C75.2924 12.9244 74.5051 13.2095 73.7449 13.7796C72.9848 14.3225 72.2111 15.1098 71.4238 16.1414V29.0908C71.4238 29.9866 71.4781 30.6382 71.5867 31.0454C71.6953 31.4526 71.9261 31.7376 72.279 31.9005C72.6319 32.0634 73.1884 32.1449 73.9486 32.1449V33H66.5373V32.1449C67.3517 32.1449 67.9354 32.0634 68.2883 31.9005C68.6412 31.7376 68.872 31.4526 68.9806 31.0454C69.1163 30.6382 69.1842 29.9866 69.1842 29.0908V15.5713C69.1842 14.5669 69.1434 13.9017 69.062 13.576C69.0077 13.2502 68.8177 13.0873 68.4919 13.0873C68.1661 13.0873 67.6232 13.2502 66.8631 13.576L66.4966 12.7615L69.5914 11.4177L70.8537 10.8884L71.4238 11.3363V14.7569H71.546C72.3604 13.5081 73.1884 12.5579 74.03 11.9064C74.8987 11.2277 75.8896 10.8884 77.0026 10.8884C78.1157 10.8884 78.9844 11.2277 79.6088 11.9064C80.2332 12.5851 80.6268 13.5352 80.7897 14.7569H80.9119C81.7263 13.5081 82.5543 12.5579 83.3959 11.9064C84.2646 11.2277 85.2555 10.8884 86.3685 10.8884C87.6988 10.8884 88.6761 11.377 89.3005 12.3543C89.952 13.3045 90.2778 14.6347 90.2778 16.345V29.0908Z"
        fill="white" />
    <path
        d="M30.8667 54.981V40.6471H36.7406L41.151 48.4857L45.4612 40.6471H51.2749V54.981H46.8043V45.3783L41.592 54.981H40.0885L34.8962 45.3783V54.981H30.8667ZM51.8174 54.981L58.1324 40.6471H64.1265L70.3813 54.981H65.4898L64.3872 52.2947H57.2703L56.1276 54.981H51.8174ZM60.8588 43.7745L58.4732 49.4479H63.2044L60.8588 43.7745ZM78.8366 55.2216C72.4415 55.2216 69.0735 52.2947 69.0735 47.9043V47.7439C69.0735 43.3535 73.2434 40.4467 78.6963 40.4467C83.648 40.4467 86.9558 42.1507 87.457 45.8996H82.6857C82.405 44.4361 81.1621 43.5941 78.7163 43.5941C75.8095 43.5941 73.925 45.1378 73.925 47.7239V47.8842C73.925 50.4704 75.7092 52.014 78.7765 52.014C81.2022 52.014 82.7659 51.2522 83.1067 49.6284H87.6775C87.2164 53.3171 83.8084 55.2216 78.8366 55.2216ZM88.4324 54.981V40.6471H93.0634V46.1602H100.441V40.6471H105.072V54.981H100.441V49.3076H93.0634V54.981H88.4324ZM107.068 54.981V40.6471H111.739V54.981H107.068ZM113.738 54.981V40.6471H119.171L126.228 49.4279V40.6471H130.197V54.981H125.506L117.728 45.1778V54.981H113.738ZM132.118 54.981V40.6471H145.85V43.6743H136.709V46.2203H144.527V49.2475H136.709V51.9539H146.271V54.981H132.118Z"
        fill="white" />
</svg>