<?xml version="1.0" encoding="utf-8"?>
<!-- Generator: Adobe Illustrator 23.0.6, SVG Export Plug-In . SVG Version: 6.00 Build 0)  -->
<svg version="1.1" id="图层_1" xmlns="http://www.w3.org/2000/svg" xmlns:xlink="http://www.w3.org/1999/xlink" x="0px" y="0px"
	 viewBox="0 0 80 80" style="enable-background:new 0 0 80 80;" xml:space="preserve">
<style type="text/css">
	.st0{fill-rule:evenodd;clip-rule:evenodd;fill:#007AFF;}
	.st1{fill:#007AFF;}
</style>
<path class="st0" d="M51.5,24.4c2.4,0,4.3,1.9,4.3,4.3v22.1c0,2.4-1.9,4.3-4.3,4.3c-2.4,0-4.3-1.9-4.3-4.3V28.8
	C47.1,26.4,49.1,24.4,51.5,24.4z"/>
<path class="st0" d="M39.4,24.4c2.4,0,4.3,1.9,4.3,4.3v22.1c0,2.4-1.9,4.3-4.3,4.3c-2.4,0-4.3-1.9-4.3-4.3V28.8
	C35,26.4,37,24.4,39.4,24.4z"/>
<path class="st0" d="M63.6,34.4c2.4,0,4.3,1.9,4.3,4.3v2.6c0,2.4-1.9,4.3-4.3,4.3c-2.4,0-4.3-1.9-4.3-4.3v-2.6
	C59.2,36.3,61.2,34.4,63.6,34.4z"/>
<path class="st0" d="M75.7,30.1c2.4,0,4.3,1.9,4.3,4.3v10.8c0,2.4-1.9,4.3-4.3,4.3c-2.4,0-4.3-1.9-4.3-4.3V34.4
	C71.4,32,73.3,30.1,75.7,30.1z"/>
<path class="st1" d="M15.8,47.3c4.2,0,7.6-3.4,7.6-7.6c0-4.2-3.4-7.6-7.6-7.6c-4.2,0-7.6,3.4-7.6,7.6C8.2,43.9,11.6,47.3,15.8,47.3z
	 M15.8,55.6C7.1,55.6,0,48.5,0,39.8C0,31.1,7.1,24,15.8,24c8.7,0,15.8,7.1,15.8,15.8C31.6,48.5,24.5,55.6,15.8,55.6z"/>
</svg>
