<svg width="147" height="32" viewBox="0 0 147 32" fill="none" xmlns="http://www.w3.org/2000/svg">
<g clip-path="url(#clip0_685_1213)">
<path d="M0 2.56C0 1.14615 1.14615 0 2.56 0H29.44C30.8538 0 32 1.14615 32 2.56V29.44C32 30.8538 30.8538 32 29.44 32H2.56C1.14615 32 0 30.8538 0 29.44V2.56Z" fill="url(#paint0_linear_685_1213)"/>
<g filter="url(#filter0_d_685_1213)">
<path d="M32.3826 14.8368C30.1735 14.7642 22.0102 15.129 11.3398 24.0248L10.3239 23.0104L24.0515 9.28141L24.477 10.2373C24.5133 10.3604 24.66 10.3691 24.7599 10.2886L26.2564 8.96906C26.2629 8.94809 26.2784 8.94415 26.2998 8.93871C26.3131 8.93534 26.3286 8.9314 26.3456 8.92251L28.0978 8.57689C28.2445 8.58557 28.287 8.44987 28.2402 8.36073L27.5439 6.76479C27.5545 6.73086 27.5651 6.69694 27.5417 6.65237L27.8321 4.76923C27.8639 4.66745 27.749 4.55701 27.6363 4.55899L25.7096 4.62652L25.6416 4.60523L23.8251 3.96234C23.723 3.93039 23.5997 3.96629 23.5913 4.11264L23.2328 5.97448L23.2116 6.04233L22.0087 7.37919C21.9428 7.47031 21.979 7.59338 22.0705 7.65925L23.132 8.14586L9.29494 21.9829L8.28052 20.9685C17.1807 10.2952 17.5571 2.12744 17.4714 -0.0729032L29.8785 -4.9314L37.2367 2.42828L32.3826 14.8368Z" fill="url(#paint1_linear_685_1213)"/>
</g>
</g>
<path d="M45.7508 7.34156C46.8114 7.34156 47.7379 7.52442 48.5303 7.89014C49.3226 8.25585 49.9322 8.77395 50.3588 9.44442C50.7977 10.1027 51.0171 10.8768 51.0171 11.7667C51.0171 12.6444 50.7977 13.4185 50.3588 14.089C49.9322 14.7473 49.3226 15.2593 48.5303 15.625C47.7379 15.9785 46.8114 16.1553 45.7508 16.1553H43.7943V20.7267H41.1428V7.34156H45.7508ZM45.4583 13.9061C46.2872 13.9061 46.9516 13.7294 47.4514 13.3759C47.9512 13.0101 48.2011 12.4738 48.2011 11.7667C48.2011 11.0597 47.9512 10.5233 47.4514 10.1576C46.9516 9.77966 46.2872 9.59071 45.4583 9.59071H43.7943V13.9061H45.4583Z" fill="white"/>
<path d="M58.3628 11.017C59.399 11.017 60.2219 11.3644 60.8314 12.0593C61.4531 12.7419 61.764 13.7416 61.764 15.0581V20.7267H59.2223V15.881C59.2223 14.1499 58.6493 13.2844 57.5034 13.2844C56.8939 13.2844 56.4002 13.5221 56.0223 13.9976C55.6565 14.4608 55.4737 15.1191 55.4737 15.9724V20.7267H52.932V6.81128H55.4737V12.5164C56.0832 11.5168 57.0463 11.017 58.3628 11.017Z" fill="white"/>
<path d="M63.7848 15.9907C63.7848 15.0033 64.0043 14.1317 64.4431 13.3759C64.8942 12.62 65.4915 12.041 66.2351 11.6387C66.9787 11.2242 67.7833 11.017 68.6488 11.017C69.5022 11.017 70.2945 11.2242 71.026 11.6387C71.7696 12.041 72.3608 12.62 72.7997 13.3759C73.2507 14.1317 73.4763 15.0033 73.4763 15.9907C73.4763 16.9781 73.2507 17.8498 72.7997 18.6056C72.3608 19.3614 71.7696 19.9404 71.026 20.3427C70.2945 20.745 69.5022 20.9461 68.6488 20.9461C67.7833 20.9461 66.9787 20.745 66.2351 20.3427C65.4915 19.9404 64.8942 19.3614 64.4431 18.6056C64.0043 17.8498 63.7848 16.9781 63.7848 15.9907ZM66.418 15.9907C66.418 16.8318 66.6252 17.5023 67.0397 18.0021C67.4663 18.4898 67.9966 18.7336 68.6305 18.7336C69.2644 18.7336 69.7886 18.4898 70.2031 18.0021C70.6176 17.5023 70.8248 16.8318 70.8248 15.9907C70.8248 15.1496 70.6176 14.4791 70.2031 13.9793C69.7886 13.4795 69.2644 13.2296 68.6305 13.2296C67.9966 13.2296 67.4663 13.4795 67.0397 13.9793C66.6252 14.4791 66.418 15.1496 66.418 15.9907Z" fill="white"/>
<path d="M82.157 20.1781C81.5353 20.6901 80.6697 20.9461 79.5604 20.9461C78.5364 20.9461 77.7074 20.6779 77.0735 20.1416C76.4518 19.593 76.141 18.6178 76.141 17.2159V13.3941H74.4587V11.2547H76.141V8.34728H78.6827V11.2547H81.5353V13.3941H78.6827V16.7953C78.6827 17.4292 78.7924 17.9107 79.0118 18.2399C79.2313 18.569 79.5848 18.7336 80.0724 18.7336C80.4991 18.7336 80.9014 18.6056 81.2793 18.3496L82.157 20.1781Z" fill="white"/>
<path d="M82.9627 15.9907C82.9627 15.0033 83.1821 14.1317 83.621 13.3759C84.072 12.62 84.6693 12.041 85.413 11.6387C86.1566 11.2242 86.9612 11.017 87.8267 11.017C88.68 11.017 89.4724 11.2242 90.2038 11.6387C90.9474 12.041 91.5387 12.62 91.9775 13.3759C92.4286 14.1317 92.6541 15.0033 92.6541 15.9907C92.6541 16.9781 92.4286 17.8498 91.9775 18.6056C91.5387 19.3614 90.9474 19.9404 90.2038 20.3427C89.4724 20.745 88.68 20.9461 87.8267 20.9461C86.9612 20.9461 86.1566 20.745 85.413 20.3427C84.6693 19.9404 84.072 19.3614 83.621 18.6056C83.1821 17.8498 82.9627 16.9781 82.9627 15.9907ZM85.5958 15.9907C85.5958 16.8318 85.8031 17.5023 86.2175 18.0021C86.6442 18.4898 87.1745 18.7336 87.8084 18.7336C88.4423 18.7336 88.9665 18.4898 89.381 18.0021C89.7954 17.5023 90.0027 16.8318 90.0027 15.9907C90.0027 15.1496 89.7954 14.4791 89.381 13.9793C88.9665 13.4795 88.4423 13.2296 87.8084 13.2296C87.1745 13.2296 86.6442 13.4795 86.2175 13.9793C85.8031 14.4791 85.5958 15.1496 85.5958 15.9907Z" fill="white"/>
<path d="M106.306 7.34156H108.317V20.7267H105.794V12.0959L102.393 17.161H101.003L97.5837 12.0593V20.7267H95.0785V7.34156H97.1814L101.753 14.2719L106.306 7.34156Z" fill="white"/>
<path d="M115.283 11.017C116.563 11.017 117.563 11.3827 118.282 12.1141C119.001 12.8334 119.361 13.8635 119.361 15.2044V20.7267H117.221C117.209 20.6292 117.191 20.4707 117.166 20.2513C117.154 20.0197 117.13 19.8185 117.093 19.6479C116.813 20.0867 116.447 20.4159 115.996 20.6353C115.557 20.8425 115.021 20.9461 114.387 20.9461C113.729 20.9461 113.125 20.8303 112.577 20.5987C112.04 20.3671 111.614 20.0318 111.297 19.593C110.98 19.1419 110.821 18.6117 110.821 18.0021C110.821 17.3682 110.998 16.8197 111.352 16.3564C111.717 15.881 112.205 15.5153 112.814 15.2593C113.424 15.0033 114.094 14.8753 114.826 14.8753C115.484 14.8753 116.161 14.985 116.856 15.2044C116.819 13.8025 116.222 13.1016 115.064 13.1016C114.137 13.1016 113.46 13.516 113.034 14.345L111.224 13.3027C111.565 12.5957 112.089 12.041 112.796 11.6387C113.503 11.2242 114.332 11.017 115.283 11.017ZM116.856 16.8867C116.246 16.7404 115.716 16.6673 115.265 16.6673C114.667 16.6673 114.204 16.777 113.875 16.9964C113.546 17.2037 113.381 17.5023 113.381 17.8924C113.381 18.2459 113.509 18.5202 113.765 18.7153C114.033 18.9103 114.375 19.0079 114.789 19.0079C115.338 19.0079 115.819 18.8555 116.234 18.5507C116.648 18.2338 116.856 17.801 116.856 17.2524V16.8867Z" fill="white"/>
<path d="M131.09 11.2547V19.7576C131.09 21.6715 130.609 23.0551 129.646 23.9084C128.682 24.7618 127.488 25.1884 126.062 25.1884C125.025 25.1884 124.111 24.969 123.319 24.5301C122.538 24.0913 121.984 23.4818 121.655 22.7016L123.611 21.5861C124.087 22.5004 124.903 22.9576 126.062 22.9576C126.964 22.9576 127.598 22.6894 127.963 22.153C128.341 21.6288 128.536 20.7755 128.548 19.593C127.915 20.4951 127 20.9461 125.806 20.9461C125.038 20.9461 124.318 20.7511 123.648 20.361C122.977 19.9587 122.435 19.3858 122.02 18.6421C121.618 17.8863 121.417 17.0025 121.417 15.9907C121.417 14.9667 121.618 14.0829 122.02 13.3393C122.435 12.5835 122.977 12.0105 123.648 11.6204C124.318 11.2181 125.038 11.017 125.806 11.017C126.427 11.017 126.988 11.1511 127.488 11.4193C127.988 11.6875 128.396 12.0959 128.713 12.6444C128.798 12.1446 128.847 11.6814 128.859 11.2547H131.09ZM126.281 18.7701C126.915 18.7701 127.451 18.5385 127.89 18.0753C128.329 17.612 128.548 16.9172 128.548 15.9907C128.548 15.0764 128.329 14.3999 127.89 13.961C127.451 13.5099 126.915 13.2844 126.281 13.2844C125.61 13.2844 125.068 13.5221 124.654 13.9976C124.251 14.473 124.05 15.1374 124.05 15.9907C124.05 16.844 124.251 17.5206 124.654 18.0204C125.068 18.5202 125.61 18.7701 126.281 18.7701Z" fill="white"/>
<path d="M134.985 10.0479C134.583 10.0479 134.23 9.89547 133.925 9.59071C133.632 9.27376 133.486 8.90804 133.486 8.49357C133.486 8.0669 133.632 7.70118 133.925 7.39642C134.217 7.09166 134.571 6.93928 134.985 6.93928C135.4 6.93928 135.759 7.09776 136.064 7.41471C136.369 7.71947 136.521 8.07909 136.521 8.49357C136.521 8.90804 136.369 9.27376 136.064 9.59071C135.759 9.89547 135.4 10.0479 134.985 10.0479ZM136.284 20.7267H133.742V11.2547H136.284V20.7267Z" fill="white"/>
<path d="M143.261 18.7336C143.993 18.7336 144.578 18.3739 145.017 17.6547L146.955 18.7884C146.65 19.4955 146.169 20.0319 145.51 20.3976C144.852 20.7633 144.102 20.9461 143.261 20.9461C142.42 20.9461 141.634 20.7572 140.902 20.3793C140.171 19.9892 139.58 19.4223 139.129 18.6787C138.677 17.9229 138.452 17.0269 138.452 15.9907C138.452 14.9423 138.677 14.0463 139.129 13.3027C139.58 12.5469 140.171 11.98 140.902 11.6021C141.634 11.212 142.42 11.017 143.261 11.017C144.102 11.017 144.852 11.1999 145.51 11.5656C146.169 11.9313 146.65 12.4677 146.955 13.1747L145.017 14.3084C144.59 13.6014 144.005 13.2479 143.261 13.2479C142.603 13.2479 142.073 13.4978 141.67 13.9976C141.28 14.4852 141.085 15.1496 141.085 15.9907C141.085 16.8197 141.286 17.484 141.689 17.9839C142.091 18.4837 142.615 18.7336 143.261 18.7336Z" fill="white"/>
<defs>
<filter id="filter0_d_685_1213" x="3.48052" y="-9.7314" width="38.5563" height="38.5563" filterUnits="userSpaceOnUse" color-interpolation-filters="sRGB">
<feFlood flood-opacity="0" result="BackgroundImageFix"/>
<feColorMatrix in="SourceAlpha" type="matrix" values="0 0 0 0 0 0 0 0 0 0 0 0 0 0 0 0 0 0 127 0" result="hardAlpha"/>
<feOffset/>
<feGaussianBlur stdDeviation="2.4"/>
<feComposite in2="hardAlpha" operator="out"/>
<feColorMatrix type="matrix" values="0 0 0 0 0 0 0 0 0 0.0242697 0 0 0 0 0.470833 0 0 0 0.51 0"/>
<feBlend mode="normal" in2="BackgroundImageFix" result="effect1_dropShadow_685_1213"/>
<feBlend mode="normal" in="SourceGraphic" in2="effect1_dropShadow_685_1213" result="shape"/>
</filter>
<linearGradient id="paint0_linear_685_1213" x1="16" y1="0" x2="16" y2="32" gradientUnits="userSpaceOnUse">
<stop stop-color="#303AF2"/>
<stop offset="1" stop-color="#5200FF"/>
</linearGradient>
<linearGradient id="paint1_linear_685_1213" x1="29.984" y1="4.17022" x2="9.99829" y2="22.3838" gradientUnits="userSpaceOnUse">
<stop stop-color="white"/>
<stop offset="1" stop-color="#A0AAFF"/>
</linearGradient>
<clipPath id="clip0_685_1213">
<rect width="32" height="32" rx="7.68" fill="white"/>
</clipPath>
</defs>
</svg>
