<?xml version="1.0" encoding="utf-8"?>
<!-- Generator: Adobe Illustrator 23.0.6, SVG Export Plug-In . SVG Version: 6.00 Build 0)  -->
<svg version="1.1" id="图层_1" xmlns="http://www.w3.org/2000/svg" xmlns:xlink="http://www.w3.org/1999/xlink" x="0px" y="0px"
	 viewBox="0 0 602 602" style="enable-background:new 0 0 602 602;" xml:space="preserve">
<style type="text/css">
	.st0{fill:#85E7FE;}
	.st1{fill:#5555FF;}
	.st2{fill:#52B4FE;}
</style>
<path class="st0" d="M291.3,215.7l-0.1,354.2c0,27.7-33.5,41.5-53,22L109.6,463.1c-9.1-9.1-13.7-20.9-13.7-32.9
	c0-11.9,4.5-23.7,13.5-32.8c0.1-0.1,0.1-0.1,0.2-0.2L291.3,215.7z"/>
<circle class="st1" cx="139.9" cy="215.6" r="43.9"/>
<path class="st1" d="M443,367.3c0.3-0.2,0.5-0.5,0.8-0.8C443.5,366.8,443.3,367.1,443,367.3c-7.3,7.3-15.1,14.1-23.4,20.2
	c-5.5,4.1-11.2,8-17.1,11.6c-11.8,7.2-24.4,13.3-37.5,18.1c-9.2,3.3-18.8,6.1-28.6,8.2c-14.6,3.2-29.7,4.8-45.3,4.8H95.9
	c0-11.9,4.5-23.7,13.5-32.8c0.1-0.1,0.1-0.1,0.1-0.1l181.7-181.6l0.1-0.1l0,0L443,367.3z"/>
<path class="st0" d="M443,63.9L291.3,215.6l0,0L129.8,54c-19.6-19.6-5.7-53,22-53h139.6C350.5,1,404.3,25.1,443,63.9z"/>
<path class="st2" d="M506,215.6c0,4.1-0.1,8.3-0.4,12.4c-0.1,2.1-0.3,4.1-0.4,6.1c-0.2,2.1-0.4,4.1-0.6,6.1s-0.5,4-0.8,6s-0.6,4-1,6
	c-0.6,4-1.4,7.9-2.4,11.8c-0.4,1.9-0.9,3.9-1.4,5.8s-1.1,3.9-1.6,5.7c-0.6,1.9-1.2,3.8-1.7,5.7c-1,3.2-2.1,6.4-3.3,9.5
	c-0.4,1.2-0.9,2.3-1.3,3.4c-0.8,2.1-1.6,4.1-2.6,6.2c-0.9,2-1.7,4-2.7,6c-0.9,2-1.9,4-2.9,5.9c-0.5,1-1,2-1.5,2.9
	c-0.5,1-1.1,1.9-1.5,2.9c-1.6,3-3.3,5.9-5.1,8.7c-0.8,1.4-1.6,2.7-2.5,4c-0.8,1.3-1.6,2.5-2.5,3.8c-1.3,1.9-2.6,3.9-4,5.8
	c-0.1,0.2-0.3,0.4-0.5,0.6c-0.6,0.9-1.3,1.8-1.9,2.7c-0.7,0.9-1.4,1.8-2,2.7c-1.5,1.9-3,3.9-4.6,5.7c-1.1,1.3-2.2,2.7-3.3,3.9
	c-0.9,1.1-1.8,2.1-2.7,3c-0.1,0.2-0.3,0.4-0.5,0.6c-1,1.1-1.9,2.1-2.9,3.1c-1.4,1.6-2.9,3.1-4.5,4.6L291.3,215.7l0,0l0,0L443,63.9
	c2.2,2.2,4.3,4.4,6.4,6.7c2.1,2.2,4.1,4.5,6.1,6.9c1.3,1.5,2.6,3.1,3.9,4.7s2.6,3.2,3.8,4.8c0,0.1,0.1,0.2,0.2,0.2
	c1.2,1.6,2.3,3.1,3.4,4.7c1.2,1.7,2.4,3.4,3.5,5.1c0.5,0.8,1.1,1.7,1.7,2.6c0.6,0.9,1.1,1.7,1.6,2.6c4.3,6.9,8.3,14.2,11.8,21.6
	c0.8,1.7,1.6,3.4,2.4,5.1c0.7,1.7,1.4,3.4,2.1,5.1c0.5,1.3,1.1,2.6,1.5,3.9c1.2,3,2.3,6,3.3,9.1c1.1,3.3,2.2,6.7,3.1,10.1
	c0.5,1.7,0.9,3.4,1.4,5.1c0.4,1.7,0.9,3.4,1.3,5.2c0.4,1.7,0.8,3.5,1.2,5.2c0.4,1.7,0.7,3.5,1,5.3s0.6,3.5,0.9,5.3s0.5,3.6,0.7,5.4
	c0.2,1.8,0.4,3.6,0.6,5.4c0.2,1.8,0.3,3.6,0.5,5.4c0.3,3.7,0.5,7.3,0.6,11C506,211.9,506,213.7,506,215.6z"/>
<polygon class="st2" points="291.3,215.7 291.3,215.7 291.3,215.7 291.3,215.6 "/>
</svg>
