<?xml version="1.0" encoding="utf-8"?>
<!-- Generator: Adobe Illustrator 23.0.6, SVG Export Plug-In . SVG Version: 6.00 Build 0)  -->
<svg version="1.1" id="图层_1" xmlns="http://www.w3.org/2000/svg" xmlns:xlink="http://www.w3.org/1999/xlink" x="0px" y="0px"
	 viewBox="0 0 40 40" style="enable-background:new 0 0 40 40;" xml:space="preserve">
<style type="text/css">
	.st0{fill:#499577;}
	.st1{fill:#FFFFFF;}
	.st2{fill-rule:evenodd;clip-rule:evenodd;fill:#FFFFFF;}
</style>
<path class="st0" d="M20,37.5c9.7,0,17.5-7.8,17.5-17.5c0-9.7-7.8-17.5-17.5-17.5C10.3,2.5,2.5,10.3,2.5,20
	C2.5,29.7,10.3,37.5,20,37.5z"/>
<path class="st1" d="M25.4,32.4c-0.6,0-1,0.5-1,1c0,0.6,0.5,1,1,1c0.6,0,1-0.5,1-1C26.5,32.9,26,32.4,25.4,32.4z"/>
<path class="st2" d="M24,6.8l-0.2-0.1L24,6.8C24,6.8,24,6.8,24,6.8z"/>
<path class="st2" d="M19.8,14c0.8-2.7,2.7-6,3.9-7.3l0,0c0,0,0,0,0.1,0c0.1,0,0.1,0.1,0.2,0.1l0,0l0,0l-0.1,0
	c-1.6,2.1-3.1,4.6-3.7,7.3c1,0.2,1.7-0.7,2-1.3c0,0,0,0,0,0l-0.5-0.1c0,0,0-0.1,0-0.1l0.6-0.2c0.4-0.1,0.9-0.9,1.1-1.3c0,0,0,0,0,0
	l-0.5-0.3c0,0,0-0.1,0-0.1l1-0.1c0,0,0,0,0,0l0.6-1c0,0,0,0,0-0.1l-0.6-0.2c0,0,0-0.1,0-0.1l0.8-0.1c0,0,0,0,0,0l0.6-1c0,0,0,0,0,0
	l-0.6-0.4c0,0,0-0.1,0-0.1l0.7,0.1c0,0,0,0,0,0L26.2,5c0,0,0,0,0,0c-1.3-0.1-2.4,0.3-2.7,0.5c0,0,0,0,0,0l0.1,0.7c0,0,0,0.1-0.1,0
	l-0.2-0.4c0,0,0,0,0,0c-0.7,0.1-1.6,1.2-1.9,1.8c0,0,0,0,0,0l0.3,0.8c0,0,0,0.1-0.1,0L21,8c0,0,0,0,0,0c-0.2,0.2-0.8,1.3-1,1.8
	c0,0,0,0,0,0l0.5,0.7c0,0,0,0.1,0,0l-0.6-0.4c0,0,0,0,0,0c-0.2,0.2-0.3,1.1-0.3,1.5c0,0,0,0,0,0l0.4,0.4c0,0,0,0.1,0,0.1l-0.5,0
	c0,0,0,0,0,0C19.1,13.2,19.5,13.8,19.8,14z"/>
<path class="st1" d="M22.6,27.1h-5.4v1h5.4V27.1z"/>
<path class="st2" d="M10.7,14.9v11c0,0.3,0.2,0.5,0.5,0.5h17.7c0.3,0,0.5-0.2,0.5-0.5v-11c0-0.3-0.2-0.5-0.5-0.5H11.2
	C10.9,14.4,10.7,14.6,10.7,14.9z M15.1,22c-0.9,0-1.6-0.7-1.6-1.6c0-0.9,0.7-1.6,1.6-1.6s1.6,0.7,1.6,1.6C16.6,21.3,15.9,22,15.1,22
	z M24.9,22c-0.9,0-1.6-0.7-1.6-1.6c0-0.9,0.7-1.6,1.6-1.6c0.9,0,1.6,0.7,1.6,1.6C26.5,21.3,25.8,22,24.9,22z"/>
<path class="st1" d="M8.5,33.2c0.6,0.5,1.2,1,1.9,1.5v-3C9.9,31.6,9,32.1,8.5,33.2z"/>
<path class="st1" d="M11.2,35.1c2.6,1.5,5.6,2.4,8.8,2.4c0.5,0,0.9,0,1.4-0.1v-5H11.2V35.1L11.2,35.1z M12.7,33.3h0.7h6.5
	c0.2,0,0.4,0.2,0.4,0.4c0,0.2-0.2,0.4-0.4,0.4h-7.2c-0.2,0-0.4-0.2-0.4-0.4C12.3,33.4,12.5,33.3,12.7,33.3z"/>
<path class="st1" d="M28.3,28.9H11.7c-0.3,0-0.5,0.2-0.5,0.5v1.8v0.5h10.7h0.2v0.2v5.5c2.4-0.3,4.6-1.1,6.6-2.2v-3.9v-1.8
	C28.8,29.1,28.6,28.9,28.3,28.9z M25.4,35.2c-1,0-1.8-0.8-1.8-1.8c0-1,0.8-1.8,1.8-1.8c1,0,1.8,0.8,1.8,1.8
	C27.2,34.4,26.4,35.2,25.4,35.2z"/>
<path class="st1" d="M31.5,33.2c-0.5-1.1-1.4-1.6-1.9-1.6v3C30.2,34.2,30.9,33.7,31.5,33.2z"/>
</svg>
