<svg xmlns="http://www.w3.org/2000/svg" width="335" height="318" viewBox="869 472 335 318"><g fill="none" stroke-miterlimit="10" stroke-width="none" font-family="none" font-size="none" font-weight="none" style="mix-blend-mode:normal" text-anchor="none"><path fill="#222" d="M1055 472c3.866 5.924 6.057 29.86-7.914 24.534-7.193-2.742-11.297-17.287-15.086-23.534-1.024 10.298 11.122 19.255 5.616 29.98-9.132 17.785-39.199 16.233-28.554 45.02 8.093 21.885 39.118 25.433 46.651 49 1.985 6.212-.432 45.612-13.297 38.813-8.222-4.345-2.074-31.472-5.419-39.812-6.61-16.484-25.832-9.869-33.573-23.05-5.093-8.67-.647-19.67-3.308-28.95-1.947-6.792-8.568-12.504-7.705-20 1.53-13.28 23.877-25.726.59-36 2.894 4.007 7.83 8.587 7.166 14-1.047 8.545-11.59 12.432-13.51 21-1.838 8.194 18.467 35.35 7.57 41.676-3.986 2.314-8.779-9.297-10.104-11.677-7.646-13.744-13.276-24.277-5.123-39-3.709 2.055-7.04 8.023-11.155 8.652C955.641 524.517 952.97 505.796 954 498c-4.58 5.183-5.248 12.894-1.753 18.997 9.225 16.107 21.887 31.3 32.353 47.003 4.82 7.231 6.416 16.48 12.666 22.734 5.718 5.722 28.212 13.635 23.111 25.06-5.076 11.368-30.002-4.004-35.008-9.135-9.469-9.708-5.133-23.584-13.013-33.608-11.169-14.21-44.489-6.148-38.878-34.05.843-4.19 3.013-8.033 4.522-12-13.825 11.116-12.628 32.417 3.001 41.523 8.326 4.852 18.881 3.34 24.534 12.52 3.786 6.147 3.574 22.141-7.437 15.57-6.148-3.67-7.46-11.93-11.098-17.614-3.772 33.083-37.728-23.934-61-4l1 1c18.596-9.72 21.678 11.384 35.02 17.536 31.528 14.538 79 27.596 96.452 61.464 6.318 12.26 10.776 28.195 11.45 42 .236 4.864-.417 14.8-7.928 12.751-19.899-5.428-11.798-41.693-18.784-55.75-10.826-21.788-38.94-30.937-60.21-39 4.548 10.836-2.57 18.758-13.855 11.634-8.842-5.582-8.215-19.257-18.166-23.35-11.072-4.554-21.087 3.901-32.979-2.285 7.823 14.346 18.64 3.998 29.98 8.487 10.654 4.217 8.262 19.08 19.04 23.87 14.62 6.496 30.757-2.393 45.98 6.403 8.9 5.143 26.788 24.363 18.06 35.953-5.333 7.082-15.548-1.476-19.574-5.858-6.887-7.496-9.543-19.712-19.494-23.845-13.474-5.595-63.979 8.502-58.992-24.01-13.993 14.168 20.2 34.02 32 33.938 7.464-.05 15.732-3.797 22.992-.772 10.194 4.248 12.102 19.91-1.992 16.077-8.108-2.206-14.07-8.03-23-7.056-8.563.934-17.108 9.38-25.992 5.871C883.736 660.816 885.99 644.095 869 643c7.051 7.625 15.451 26.776 25.008 30.007 8.882 3.003 28.783-11.047 35.063-2.508 3.118 4.24-2.538 7.892-6.079 8.693-6.714 1.517-13.225-2.088-19.992.117-12.106 3.946-17.2 13.67-31 13.691 12.654 9.012 21.68-3.633 33-7.756 7.477-2.724 15.281 1.385 23 .517 11.434-1.286 21.003-10.306 33-6.877 5.958 1.703 32.28 16.465 26.854 24.493-6.193 9.165-34.73-7.436-38.854-13.377-.66 3.123 1.173 9.445-3.226 10.233-8.202 1.468-14.827-7.918-23.73-3.983-13.856 6.123-13.562 24.012-32.044 24.75 18.402 9.497 27.114-20 46-14.46 15.422 4.523 18.796 19.17 1 25.095-7.36 2.45-13.367-2.293-20-4.635 25.677 31.945 39.445-21.492 66-11.854 17.544 6.368 29.3 28.115 11.855 41.852-7.825 6.162-17.127 4.427-25.855 7.778-15.766 6.053-27.614 13.85-45 16.224 22.03 7.463 40.522-11.624 61-8-9.679 3.931-18.164 5.53-26 13 13.752.918 40.433-9.719 47-22-1.334 9.7-11.734 14.753-13 25 4.603-4.837 8.983-8.954 15-12-2.127 3.922-3.482 7.558-4 12 9.032-9.8 16.701-20.645 19-34 2.648 10.86-3 22.837-3 34 2.984-7.672 6.577-14.497 10-22 .64 6.6-3.066 11.887-5 18 13.251-10.65 12-29.5 12-45 7.33 16.32-.408 33.448 5 50 2.816-8.44 3.45-21.885 4-31 4.513 8.867 5 18.207 5 28 5.684-9.119 4.11-21.069 2-31 5.128 10.467 4.526 20.48 11 31 1.855-6.664-2.862-14.924-3-22 5.203 6.705 10.964 12.23 12 21 1.702-5.024 1.067-10.193-1-15 6.576 2.89 11.65 7.792 13 15 1.628-4.815.63-9.308-1-14 7.037 4.011 13.817 7.051 17 15 1.094-3.846-.093-6.597-2-10 5.426 2.076 10.193 2.976 16 3-2.225-1.699-4.436-2.87-7-4 14.6.592 28.478 6 44 6-20.685-11.207-55.773-10.218-72.949-26.185-17.213-16.002-.046-42.498 20.95-42.57 11.785-.04 14.668 12.915 22.156 19.236 7.745 6.538 17.812 4.201 26.843 2.52-7.515-3.15-16.862-1.616-22.167-9.159-6.643-9.446 15.63-20.024 23.167-19.259 13.827 1.405 16.738 17.898 33 14.417-11.912-4.429-18.802-18.634-31-20.682-11.837-1.988-17.962 9.418-28 8.936-5.485-.263-9.588-5.694-15-6.804-5.874-1.205-16.837 4.173-21.477.585-8.29-6.413 9.732-15.566 14.477-16.399 13.438-2.36 22.733 11.32 36 9.041 9.138-1.57 15.282-12.729 25-11.786 11.574 1.123 25.515 23.547 37 9.11-16.23 1.438-19.192-13.127-33-16.472-13.708-3.32-20.974 14.415-34 10.765-34.464-9.658 7.913-29.603 22-28.327 9.162.83 13.077 13.065 23.992 8.85 10.85-4.192 12.358-17.503 25.008-20.817-14.748-4.804-20.13 18.744-32.999 14.785-20.402-6.275-5.449-26.174 12-19.785-16.005-20.459-28.93 12.107-41.002 16.734-9.39 3.6-19.147-1.016-27.999 5.145-5.968 4.155-20.206 19.372-28.496 12.297-10.057-8.584 10.951-24.06 17.496-26.659 11.677-4.635 20.53-16.315 32-19.51 10.66-2.968 22.234 5.464 31.153-4.432 8.286-9.193 3.907-21.647 9.212-31.553 4.41-8.235 14.09-7.343 14.635-18.022-4.86 6.994-9.613 10.484-16 3-1.216 7.001-4.813 29.874-13 13-2.417 10.486 9.795 19.41-.428 29.653-8.057 8.074-19.713-.367-29.572 1.854-11.286 2.542-18.804 13.537-30 16.815-4.902 1.436-13.15 2.04-14.81-4.422-2.175-8.479 9.026-19.31 15.81-22.256 13.26-5.758 29.448 4.684 41.951-4.429 9.888-7.206 7.35-19.18 11.61-29.215 3.772-8.889 11.762-12.989 19.44-18-30.407-7.697-19.945 43.216-41.998 43.646-13.379.261-2.255-17.477-1.366-23.646 1.144-7.948-2.593-17.543.53-24.98 5.648-13.456 28.198-19.13 12.833-37.02.46 20.104-12.5 18.772-18.138 35.003-4.21 12.122 1.932 22.503-8.95 32.812-11.814 11.192-27.53 13.312-36.883 28.185-12.143 19.31-5.12 41.977-9.512 63-1.396 6.681-13.995 36.916-23.83 25.694-8.182-9.334 2.582-35.674 5.985-45.694 4.163-12.259 11.4-22.98 15.94-35 2.587-6.853 1.957-15.854 6.25-21.9 7.85-11.06 25.581-13.884 34.46-24.366 6.597-7.79 5.1-21.203 7.678-30.734-6.366 6.49-4.06 15.102-8.93 21.83-7.002 9.67-8.374-4.973-7.07-9.83-9.14 5.027-15.232-4.132-8.576-11.815 12.633-14.582 50.916-17.44 28.576-46.185-.443 6.445 4.53 34.985-12.802 29.071-5.89-2.01-6.45-10.64-13.198-13.07 10.732 17.8-8.829 16.185-12.473 31-2.316 9.416 6.194 16.98 4.791 26-2.68 17.235-27.86 7.023-34.684-1.42-7.365-9.113 14.503-13.76 17.74-19.739 5.054-9.34-6.805-18.889-3.386-28.834 3.4-9.89 54.514-40.798 12.012-49.008 27.578 25.898-15.479 25.175-21.236 45-2.859 9.845 9.466 22.927 1.022 30.474-10.895 9.74-36.572 5.666-37.786-10.474-10.98 8.163-7.16-9.534-1.734-14.377 8.04-7.175 69.56-39.016 34.734-53.623m18.9 14.3c-1.894 1.747 1.053 4.694 2.801 2.801 1.721-1.864-.938-4.523-2.802-2.802m-57.379 4.03c-3.753 2.416.242 8.196 3.98 6.141 4.195-2.309.007-8.708-3.98-6.14m-47.699 11.048c-2.093 1.52.265 4.764 2.358 3.244 2.093-1.519-.265-4.764-2.358-3.244m139.952 8.135c-2.1 1.166-.588 4.641 1.702 3.53 2.308-1.122.526-4.765-1.702-3.53m-158.29 28.894c-3.607 2.045-.79 8.355 3.034 6.186 3.607-2.045.791-8.355-3.034-6.186m-43.228 3.058c-4.437 2.166-.939 8.875 3.244 6.208 3.522-2.246.672-8.12-3.244-6.208m256.228 2.942c-3.607 2.045-.79 8.355 3.034 6.186 3.607-2.045.791-8.355-3.034-6.186m-20.448 12.893c-1.952 1.771.935 4.774 2.95 3.322 2.373-1.709-.819-5.255-2.95-3.322m-67.214 13.096c-2.01 1.533.108 5.273 2.4 3.948 2.476-1.434-.023-5.76-2.4-3.948m-142.845.982c-1.932 1.485.198 4.794 2.243 3.244 1.966-1.49-.214-4.803-2.243-3.244m-39.437 11c-2.29 1.55.347 4.762 2.447 3.244 2.131-1.539-.287-4.705-2.447-3.244m296.282 20.02c-2.899 1.942.596 6.5 3.317 4.283 2.436-1.984-.782-5.983-3.317-4.284m-251 2.981c-2.093 1.52.265 4.764 2.358 3.244 2.093-1.519-.265-4.764-2.358-3.244m-66.879 16.91c-3.563 2.855.698 8.97 4.516 5.824 3.698-3.047-.88-8.736-4.516-5.824m316.88-.002c-3.493 2.75.84 8.197 4.356 5.428 3.493-2.749-.839-8.197-4.356-5.428M870.46 673.533c-2.92 1.397-.896 5.763 2.08 4.501 2.967-1.258.789-5.874-2.08-4.5m326 .001c-2.884 1.401-.916 6.232 2.08 4.844 2.91-1.349.916-6.299-2.08-4.844m-303.962 30.998c-2.538 1.294-.533 5.228 2.004 3.934 2.538-1.294.533-5.228-2.004-3.934m27.985 42.922c-2.719 1.555-.864 5.812 2.113 4.584 3.235-1.335 1.015-6.374-2.113-4.584m225.76-.154c-3.862.982-1.089 6.055 2.256 4.738 3.238-1.274.632-5.472-2.256-4.738z"/><path fill="#262230" d="m1107 774 1 1z"/></g></svg>