<?xml version="1.0" encoding="utf-8"?>
<!-- Generator: Adobe Illustrator 23.0.6, SVG Export Plug-In . SVG Version: 6.00 Build 0)  -->
<svg version="1.1" id="图层_1" xmlns="http://www.w3.org/2000/svg" xmlns:xlink="http://www.w3.org/1999/xlink" x="0px" y="0px"
	 viewBox="0 0 32 32" style="enable-background:new 0 0 32 32;" xml:space="preserve">
<style type="text/css">
	.st0{fill:#4640f4;stroke:#4640f4;stroke-miterlimit:10;}
</style>
<path class="st0" d="M23.2,29.5c-3.3,0.3-6-3.5-8.1-5.5C14,31.6,2.5,30.9,2.5,23.2c0-3.3,0-11.2,0-14.4c0-1.1,0.3-2.3,0.9-3.2
	c1.1-1.9,3.2-3.1,5.4-3.1c3.3,0,11.2,0,14.4,0C31,2.5,31.7,14,24,15.1l3.6,3.6C31.7,22.5,28.7,29.6,23.2,29.5z M21.4,24.9
	c2.3,2.3,5.9-1.3,3.5-3.5l-6.3-6.3h-3.5c0,0.3,0,3.3,0,3.5l5.5,5.4L21.4,24.9z M6.3,23.2c-0.1,3.2,5,3.2,5,0V8.8
	c0-1.6-1.7-2.9-3.2-2.4C8,6.4,8,6.5,7.9,6.5C7,6.8,6.3,7.8,6.3,8.9V23.2z M23.2,11.3c3.2,0.1,3.2-5,0-5h-8.6c0.7,1.4,0.5,3.5,0.5,5
	C15.6,11.3,23,11.3,23.2,11.3z"/>
</svg>
