<svg xmlns="http://www.w3.org/2000/svg" width="160" height="32" fill="none"><g clip-path="url(#a)"><path fill="#111236" fill-rule="evenodd" d="M148.5 8a5.5 5.5 0 1111 0 5.5 5.5 0 01-11 0zm5.5-4.5a4.5 4.5 0 100 9 4.5 4.5 0 000-9zm1.15 4.95c.19-.06.34-.15.48-.26.3-.25.46-.62.46-1.09 0-.44-.15-.79-.47-1.04a1.9 1.9 0 00-1.3-.4h-2.23v4.68h1.2v-1.7h.73l1 1.7h1.35l-1.22-1.9zm-.46-.83c-.12.1-.3.15-.54.15h-.86V6.58h.86a.9.9 0 01.54.14c.11.1.17.25.17.45s-.06.36-.17.45z" clip-rule="evenodd"/></g><path fill="#111236" d="M34.44 24.14a6.65 6.65 0 01-4.04-1.16 4.26 4.26 0 01-1.7-3.36h4.18c.04.5.19.85.44 1.08.25.23.58.34.98.34.36 0 .65-.09.88-.26a.91.91 0 00.36-.76c0-.41-.2-.73-.58-.96a9.99 9.99 0 00-1.88-.76c-.92-.3-1.67-.6-2.24-.88a4.56 4.56 0 01-1.48-1.26 3.58 3.58 0 01-.62-2.18 3.91 3.91 0 012.56-3.8c.8-.33 1.7-.5 2.72-.5 1.64 0 2.95.39 3.92 1.16a4.1 4.1 0 011.58 3.22h-4.26c-.01-.43-.15-.75-.4-.96a1.36 1.36 0 00-.94-.32c-.3 0-.53.09-.72.26-.19.17-.28.42-.28.74 0 .27.1.5.3.7.21.19.47.35.78.5.3.13.76.3 1.36.52.9.3 1.63.61 2.2.92.59.3 1.09.71 1.5 1.26.43.53.64 1.21.64 2.04a4.1 4.1 0 01-2.46 3.84c-.79.39-1.72.58-2.8.58zm13.7-3.48V24h-1.7c-2.86 0-4.3-1.42-4.3-4.26v-3.7h-1.38v-3.26h1.38v-2.72h3.94v2.72h2.04v3.26h-2.04v3.76c0 .3.07.53.2.66.15.13.39.2.72.2h1.14zm13.28-7.88V24h-3.94v-1.6c-.33.5-.8.92-1.38 1.24a4.3 4.3 0 01-2.02.46c-1.3 0-2.34-.43-3.1-1.28a5.21 5.21 0 01-1.12-3.52v-6.52h3.9v6.02c0 .64.17 1.15.5 1.52.35.36.8.54 1.36.54.57 0 1.03-.18 1.36-.54.33-.37.5-.88.5-1.52v-6.02h3.94zm1.6 5.6a7 7 0 01.61-3.04 4.8 4.8 0 011.74-2 4.45 4.45 0 014.36-.24c.57.3 1.02.7 1.34 1.22V9.2h3.94V24h-3.94v-1.56c-.3.52-.74.93-1.3 1.24-.56.3-1.22.46-1.98.46-.9 0-1.7-.23-2.44-.7a4.89 4.89 0 01-1.72-2 7.12 7.12 0 01-.62-3.06zm8.07 0c0-.72-.2-1.29-.6-1.7a1.9 1.9 0 00-1.44-.62c-.59 0-1.07.2-1.46.62-.39.4-.58.97-.58 1.7 0 .72.2 1.3.58 1.72.39.41.87.62 1.46.62.57 0 1.05-.2 1.44-.62.4-.41.6-.99.6-1.72zm18.23-5.6l-7.11 16.56h-4.27l2.69-5.82-4.6-10.74h4.36l2.36 6.36 2.28-6.36h4.3zm.55 4.14c0-1.39.29-2.62.86-3.7a6.23 6.23 0 012.48-2.54 7.25 7.25 0 013.68-.92c1.76 0 3.24.47 4.44 1.42 1.2.93 1.97 2.2 2.32 3.82h-4.22a2.8 2.8 0 00-2.6-1.64c-.9 0-1.63.33-2.18.98a3.9 3.9 0 00-.8 2.58c0 1.1.27 1.97.8 2.62.55.64 1.27.96 2.18.96a2.8 2.8 0 002.6-1.64h4.22a6.44 6.44 0 01-2.32 3.84 7.01 7.01 0 01-4.44 1.4c-1.39 0-2.61-.3-3.68-.9a6.4 6.4 0 01-2.48-2.54 7.93 7.93 0 01-.86-3.74zm20.86 7.22a6.42 6.42 0 01-3.02-.7 5.17 5.17 0 01-2.08-2 5.95 5.95 0 01-.76-3.06c0-1.16.25-2.17.76-3.04a5.31 5.31 0 012.1-2c.89-.47 1.9-.7 3.02-.7a6.3 6.3 0 013 .7 5.18 5.18 0 012.1 2c.52.87.78 1.88.78 3.04a5.9 5.9 0 01-.78 3.06 5.18 5.18 0 01-2.1 2c-.9.47-1.9.7-3.02.7zm0-3.4c.54 0 1-.2 1.36-.6.37-.41.56-1 .56-1.76s-.19-1.34-.56-1.74c-.36-.4-.81-.6-1.34-.6-.54 0-.98.2-1.34.6-.36.4-.54.98-.54 1.74 0 .77.17 1.36.52 1.76.34.4.79.6 1.34.6zm11.41-5.98a5.1 5.1 0 011.6-1.52c.63-.37 1.3-.56 2.02-.56v4.18h-1.1c-.85 0-1.48.17-1.9.5-.41.33-.62.91-.62 1.74V24h-3.92V12.78h3.92v1.98zm9.17-2.12c.76 0 1.42.15 1.98.46.57.3 1.01.72 1.32 1.24v-1.56h3.92v11.1c0 1.05-.2 2-.6 2.84a4.62 4.62 0 01-1.88 2.04c-.84.5-1.91.76-3.2.76-1.74 0-3.12-.4-4.16-1.22a4.64 4.64 0 01-1.78-3.32h3.86c.08.36.28.64.6.84.32.2.73.3 1.24.3 1.33 0 2-.75 2-2.24v-1.44c-.31.52-.75.93-1.32 1.24-.56.3-1.22.46-1.98.46a4.45 4.45 0 01-4.16-2.7 7.13 7.13 0 01-.62-3.06 7 7 0 01.62-3.04 4.45 4.45 0 014.16-2.7zm3.3 5.74c0-.72-.2-1.29-.6-1.7a1.9 1.9 0 00-1.44-.62c-.59 0-1.08.2-1.46.62-.39.4-.58.97-.58 1.7 0 .72.19 1.3.58 1.72.38.41.87.62 1.46.62.57 0 1.05-.2 1.44-.62.4-.41.6-.99.6-1.72zm8.13-6.64c-.7 0-1.25-.19-1.68-.56a1.89 1.89 0 01-.62-1.44c0-.59.2-1.07.62-1.46a2.4 2.4 0 011.68-.58c.68 0 1.23.2 1.64.58.43.39.64.87.64 1.46 0 .57-.21 1.05-.64 1.44-.41.37-.96.56-1.64.56zm1.94 1.04V24h-3.92V12.78h3.92z"/><path fill="#fff" d="M13.08 20.58h.02-.02zm0 0h.02-.02zm9.08-5.83c-.11-.13-.31-.36-.3-.42 0-.05 0-.1.02-.14l.03-.07c.08-.14.22-.27.48-.48.34-.3.77-.65 1.06-1.26.63-1.33-.18-7.28-.6-8.85C22.5 2.26 21.1 0 19.57 0c-.97 0-1.7.8-2.16 2.37C16.24 6.36 15 7.9 14.07 9.01c-.18.22-.35.43-.5.64a3.53 3.53 0 00-1.58 0c-.15-.21-.32-.42-.5-.64-.91-1.12-2.17-2.65-3.35-6.64C7.67.8 6.94 0 5.96 0 4.42 0 3.03 2.26 2.68 3.53c-.4 1.52-1.24 7.5-.57 8.85.29.61.72.97 1.06 1.26.26.2.4.34.48.48l.03.07c.02.04.03.1.03.14 0 .07-.19.28-.31.41-.6.68-1.54 1.77-1.52 4.51v.32c.05.92.36 1.8.87 2.61a5.4 5.4 0 002.62 2.02c2.1.84 4.65 1.34 7.4 1.34 2.46 0 4.76-.4 6.73-1.09 1.52-.53 2.96-1.46 3.66-2.92a5.18 5.18 0 00.49-2.62c-.05-2.48-.93-3.5-1.49-4.16zM8.92 12.63c.18-.27.48-.52.88-.52s.7.25.88.52c.18.28.28.63.28 1 0 .36-.1.71-.28.99-.17.27-.47.52-.88.52-.4 0-.7-.25-.88-.52a1.84 1.84 0 01-.27-1c0-.36.1-.71.27-.99zm7.94 1c0 .36-.1.71-.28.99-.17.27-.48.52-.88.52s-.7-.25-.88-.52a1.84 1.84 0 01-.27-1c0-.36.09-.71.27-.99.17-.27.47-.52.88-.52.4 0 .7.25.88.52.18.28.28.63.28 1zm-.03 5.57l-.01.01-.02.03-.06.1a5.13 5.13 0 01-1.06 1.28c-.34.28-.77.53-1.29.61l-.14.02c-.45.05-.92-.04-1.4-.28.02.4.22 1.41 0 1.53-.09.04-.13.04-.17.04-.04 0-.09 0-.17-.04-.23-.12-.03-1.11 0-1.53a2.47 2.47 0 01-2.84-.35 4.69 4.69 0 01-1.08-1.27l-.06-.1-.02-.04a.49.49 0 01.86-.46l.01.02.05.08a4.36 4.36 0 00.85 1c.29.24.6.4.93.43.32.04.7-.04 1.16-.36l.03-.02a.44.44 0 01.13-.07h.02a1.05 1.05 0 01.08-.02h.15l.06.02.06.03.07.04c.47.34.86.42 1.18.38.33-.03.63-.19.91-.42a3.76 3.76 0 00.84-1l.04-.08.01-.02a.49.49 0 01.88.44zm-3.75 1.38h.02-.02z"/><path fill="#FF4B23" d="M7.63 2.53c-1.26-4.2-3.86-.59-4.33 1.13-.46 1.72-1.13 7.32-.6 8.38.5 1.07 1.57 1.2 1.64 2.14.06.92-2.17 1.2-1.77 5.9.33 3.65 5.13 4.03 4.83 3.86-.8-.45-2.8-1.34-2.63-3.85.3-4.4 4.06-3.03 6.1-4.26.93-.55 1.36-1.34 1.46-3 .24-3.84-2.4-2.54-4.7-10.3zm3.05 12.09c-.17.27-.47.53-.88.53-.4 0-.7-.26-.88-.53a1.84 1.84 0 01-.27-1c0-.36.09-.71.27-.99.18-.27.48-.52.88-.52s.7.25.88.52c.18.28.28.63.28 1 0 .36-.1.71-.28.99zm12.15-2.58c.5-1.06-.16-6.66-.63-8.38-.47-1.72-3.07-5.33-4.3-1.13-2.3 7.76-4.93 6.46-4.7 10.3.1 1.66.53 2.45 1.47 3 2 1.23 5.76-.14 6.06 4.26.17 2.5-1.83 3.4-2.63 3.85-.3.17 4.5-.2 4.83-3.85.4-4.71-1.8-4.99-1.73-5.91.07-.93 1.13-1.07 1.63-2.14zm-6.25 2.58c-.17.27-.48.53-.88.53s-.7-.26-.88-.53a1.84 1.84 0 01-.27-1c0-.36.09-.71.27-.99.17-.27.47-.52.88-.52.4 0 .7.25.88.52.18.28.28.63.28 1 0 .36-.1.71-.28.99z"/><path fill="#111236" d="M14.52 17.15c-.13-.47-.5-.76-1.78-.76-1.27 0-1.68.3-1.77.76-.12.47.13 1.19.7 1.78.58.6 1.12.6 1.12.6s.53 0 1.1-.6c.5-.6.7-1.31.63-1.78z"/><path fill="#FF4B23" d="M13.1 20.59h-.02v-.01h.02zm1.3.64v1.14c0 1.02-.79 1.83-1.74 1.83-.94 0-1.73-.8-1.73-1.83v-1.14l.18.02c.45.05.92-.03 1.4-.28-.03.42-.23 1.41 0 1.53a.3.3 0 00.17.04c.04 0 .08 0 .16-.04.23-.12.03-1.12 0-1.53a2.47 2.47 0 001.55.26z"/><path fill="#111236" fill-rule="evenodd" d="M13.1 20.59h-.02v-.01h.02z" clip-rule="evenodd"/><path fill="#111236" fill-rule="evenodd" d="M16.61 18.54a.49.49 0 00-.66.22v.02c-.02.01-.03.04-.05.07l-.18.28c-.16.23-.38.5-.66.73-.28.23-.58.39-.91.42-.32.04-.7-.04-1.18-.38a.59.59 0 00-.07-.04.3.3 0 00-.06-.03.2.2 0 00-.06-.01l-.03-.01a.45.45 0 00-.2.02h-.02a.44.44 0 00-.13.07l-.03.02c-.46.32-.84.4-1.16.36a1.8 1.8 0 01-.93-.42 3.7 3.7 0 01-.9-1.09v-.02h-.01a.49.49 0 00-.87.45l.01.01.02.03a5.68 5.68 0 001.14 1.37 2.83 2.83 0 001.44.64c.45.05.92-.03 1.4-.28-.03.42-.23 1.41 0 1.53a.3.3 0 00.17.04c.04 0 .08 0 .16-.04.23-.12.03-1.12 0-1.53a2.48 2.48 0 001.55.26c.52-.08.95-.33 1.29-.61a4.62 4.62 0 001.06-1.28l.06-.1.02-.03v-.01a.49.49 0 00-.2-.66zm-3.53 2.04h.02-.02zm-2.12-6.95c0 .36-.1.71-.28.99-.17.27-.47.52-.88.52-.4 0-.7-.25-.88-.52a1.84 1.84 0 01-.27-1c0-.36.1-.71.27-.99.18-.27.48-.52.88-.52s.7.25.88.52c.18.28.28.63.28 1zm5.89 0c0 .36-.1.71-.27.99-.17.27-.48.52-.88.52s-.7-.25-.88-.52a1.84 1.84 0 01-.27-1c0-.36.09-.71.27-.99.17-.27.47-.52.88-.52.4 0 .7.25.88.52.18.28.27.63.27 1z" clip-rule="evenodd"/><path fill="#FF4B23" d="M1.89 19.57l-.01-.26v-.06.32z"/><defs><clipPath id="a"><path fill="#fff" d="M148 2h12v12h-12z"/></clipPath></defs></svg>