<svg width="16" height="16" viewBox="0 0 16 16" fill="none" xmlns="http://www.w3.org/2000/svg">
<path d="M12.2868 0C14.3375 0 16 1.65933 16 3.70621L16 4.68326L14.3396 5.19268V3.7001C14.3363 2.5713 13.4185 1.65725 12.2868 1.65725H3.71322C2.57947 1.65725 1.66039 2.5746 1.66039 3.70621V7.65807C1.66039 8.34465 1.66039 8.68794 1.47134 8.94334C1.2823 9.19874 0.953546 9.2996 0.296032 9.50133L2.88854e-06 9.59215L9.18169e-06 3.70621C9.18169e-06 1.65933 1.66247 0 3.71322 0H12.2868Z" fill="#FF5B49"/>
<path d="M15.704 6.50479L16 6.41397L16 12.2938C16 14.3407 14.3375 16 12.2868 16H3.71321C1.66246 16 0 14.3407 0 12.2938L1.0381e-06 11.3229L1.66039 10.8134V12.2998C1.66364 13.4287 2.58147 14.3428 3.71321 14.3428H12.2868C13.4205 14.3428 14.3396 13.4254 14.3396 12.2938V8.34805C14.3396 7.66147 14.3396 7.31818 14.5287 7.06278C14.7177 6.80738 15.0465 6.70652 15.704 6.50479Z" fill="#FF5B49"/>
<path d="M4.47401 10.5116V7.41709C4.47401 6.60157 4.64458 6.43134 5.46163 6.43134H5.76717C6.5843 6.43134 6.75479 6.60152 6.75479 7.41709V10.5116C6.75479 11.3271 6.5843 11.4973 5.76717 11.4973H5.46163C4.64458 11.4973 4.47401 11.3271 4.47401 10.5116Z" fill="#FF5B49"/>
<path d="M10.2327 4.50452C9.41563 4.50452 9.24505 4.67475 9.24505 5.49028V10.5115C9.24505 11.3271 9.41563 11.4973 10.2327 11.4973H10.5382C11.3553 11.4973 11.5258 11.3271 11.5258 10.5115V5.49028C11.5258 4.6747 11.3553 4.50452 10.5382 4.50452H10.2327Z" fill="#FF5B49"/>
</svg>
