<svg width="70" height="70" viewBox="0 0 70 70" fill="none" xmlns="http://www.w3.org/2000/svg">
<g clip-path="url(#clip0_37_120)">
<path d="M1.82986 40.2559C0.823413 40.2559 0 41.0793 0 42.0855C0 43.092 0.823413 43.9154 1.82986 43.9154C2.83631 43.9154 3.65973 43.092 3.65973 42.0855C3.65956 41.0793 2.83614 40.2559 1.82986 40.2559Z" fill="#8B92F2"/>
<path d="M1.82986 25.6172C0.823413 25.6172 0 26.4406 0 27.4471C0 28.4535 0.823413 29.2769 1.82986 29.2769C2.83631 29.2769 3.65973 28.4535 3.65973 27.4471C3.65956 26.4406 2.83614 25.6172 1.82986 25.6172Z" fill="#8B92F2"/>
<path d="M27.4471 65.873C26.4406 65.873 25.6172 66.6965 25.6172 67.7029C25.6172 68.7094 26.4406 69.5328 27.4471 69.5328C28.4535 69.5328 29.2769 68.7094 29.2769 67.7029C29.2769 66.6965 28.4535 65.873 27.4471 65.873Z" fill="#8B92F2"/>
<path d="M12.8087 9.14893C10.796 9.14893 9.14917 10.7958 9.14917 12.8085C9.14917 14.8212 10.7958 16.4682 12.8087 16.4682C14.8216 16.4682 16.4683 14.8214 16.4683 12.8087C16.4683 10.7959 14.8215 9.14893 12.8087 9.14893Z" fill="#545BE3"/>
<path d="M12.8087 23.7876C10.796 23.7876 9.14917 25.4344 9.14917 27.4472C9.14917 29.4599 10.796 31.1067 12.8087 31.1067C14.8215 31.1067 16.4683 29.4599 16.4683 27.4472C16.4683 25.4344 14.8215 23.7876 12.8087 23.7876Z" fill="#545BE3"/>
<path d="M12.8087 38.4258C10.796 38.4258 9.14917 40.0726 9.14917 42.0853C9.14917 44.0981 10.796 45.7449 12.8087 45.7449C14.8215 45.7449 16.4683 44.0982 16.4683 42.0853C16.4683 40.0726 14.8215 38.4258 12.8087 38.4258Z" fill="#545BE3"/>
<path d="M67.7029 29.2769C68.7094 29.2769 69.5328 28.4535 69.5328 27.4471C69.5328 26.4406 68.7094 25.6172 67.7029 25.6172C66.6965 25.6172 65.873 26.4406 65.873 27.4471C65.873 28.4535 66.6965 29.2769 67.7029 29.2769Z" fill="#8B92F2"/>
<path d="M42.0855 3.65956C43.0919 3.65956 43.9153 2.83614 43.9153 1.82969C43.9153 0.823413 43.0919 0 42.0855 0C41.079 0 40.2556 0.823413 40.2556 1.82986C40.2558 2.83614 41.0792 3.65956 42.0855 3.65956Z" fill="#8B92F2"/>
<path d="M27.4472 16.468C29.4599 16.468 31.1067 14.8212 31.1067 12.8085C31.1067 10.7958 29.4599 9.14893 27.4472 9.14893C25.4344 9.14893 23.7876 10.7958 23.7876 12.8085C23.7876 14.8212 25.4344 16.468 27.4472 16.468Z" fill="#545BE3"/>
<path d="M27.4471 3.65956C28.4535 3.65956 29.2769 2.83614 29.2769 1.82969C29.2769 0.823413 28.4535 0 27.4471 0C26.4406 0 25.6172 0.823413 25.6172 1.82986C25.6172 2.83614 26.4406 3.65956 27.4471 3.65956Z" fill="#8B92F2"/>
<path d="M42.0855 16.468C44.0982 16.468 45.745 14.8212 45.745 12.8085C45.745 10.7958 44.0982 9.14893 42.0855 9.14893C40.0727 9.14893 38.4259 10.7958 38.4259 12.8085C38.4259 14.8212 40.0727 16.468 42.0855 16.468Z" fill="#545BE3"/>
<path d="M12.8087 53.0645C10.796 53.0645 9.14917 54.7113 9.14917 56.724C9.14917 58.7367 10.796 60.3836 12.8087 60.3836C14.8215 60.3836 16.4683 58.7369 16.4683 56.7242C16.4683 54.7113 14.8215 53.0645 12.8087 53.0645Z" fill="#545BE3"/>
<path d="M42.0855 21.9575C39.048 21.9575 36.5961 24.4094 36.5961 27.4469C36.5961 30.4845 39.048 32.9364 42.0855 32.9364C45.123 32.9364 47.5749 30.4845 47.5749 27.4469C47.5749 24.4094 45.123 21.9575 42.0855 21.9575Z" fill="#472D9F"/>
<path d="M56.724 38.4258C54.7113 38.4258 53.0645 40.0726 53.0645 42.0853C53.0645 44.0981 54.7113 45.7449 56.724 45.7449C58.7367 45.7449 60.3836 44.0981 60.3836 42.0853C60.3836 40.0726 58.7367 38.4258 56.724 38.4258Z" fill="#545BE3"/>
<path d="M56.724 53.0645C54.7113 53.0645 53.0645 54.7113 53.0645 56.724C53.0645 58.7367 54.7113 60.3836 56.724 60.3836C58.7367 60.3837 60.3836 58.7369 60.3836 56.7242C60.3836 54.7113 58.7367 53.0645 56.724 53.0645Z" fill="#545BE3"/>
<path d="M56.724 23.7876C54.7113 23.7876 53.0645 25.4344 53.0645 27.4472C53.0645 29.4599 54.7113 31.1067 56.724 31.1067C58.7367 31.1067 60.3836 29.4599 60.3836 27.4472C60.3836 25.4344 58.7367 23.7876 56.724 23.7876Z" fill="#545BE3"/>
<path d="M67.7029 40.2559C66.6965 40.2559 65.873 41.0793 65.873 42.0857C65.873 43.092 66.6965 43.9154 67.7029 43.9154C68.7094 43.9154 69.5328 43.092 69.5328 42.0855C69.5326 41.0793 68.7092 40.2559 67.7029 40.2559Z" fill="#8B92F2"/>
<path d="M56.724 9.14893C54.7113 9.14893 53.0645 10.7958 53.0645 12.8085C53.0645 14.8212 54.7111 16.4682 56.724 16.4682C58.7367 16.4682 60.3836 14.8214 60.3836 12.8087C60.3836 10.7959 58.7367 9.14893 56.724 9.14893Z" fill="#545BE3"/>
<path d="M27.4471 36.5962C24.4095 36.5962 21.9576 39.0481 21.9576 42.0856C21.9576 45.1231 24.4095 47.575 27.4471 47.575C30.4846 47.575 32.9365 45.1231 32.9365 42.0856C32.9365 39.0481 30.4846 36.5962 27.4471 36.5962Z" fill="#472D9F"/>
<path d="M27.4472 53.0645C25.4344 53.0645 23.7876 54.7113 23.7876 56.724C23.7876 58.7367 25.4344 60.3836 27.4472 60.3836C29.4599 60.3836 31.1067 58.7367 31.1067 56.724C31.1067 54.7113 29.4599 53.0645 27.4472 53.0645Z" fill="#545BE3"/>
<path d="M27.4471 21.9575C24.4095 21.9575 21.9576 24.4094 21.9576 27.4469C21.9576 30.4845 24.4095 32.9364 27.4471 32.9364C30.4846 32.9364 32.9365 30.4845 32.9365 27.4469C32.9365 24.4094 30.4846 21.9575 27.4471 21.9575Z" fill="#472D9F"/>
<path d="M42.0855 53.0645C40.0727 53.0645 38.4259 54.7113 38.4259 56.724C38.4259 58.7369 40.0727 60.3837 42.0855 60.3837C44.0982 60.3837 45.745 58.7369 45.745 56.7242C45.7452 54.7113 44.0984 53.0645 42.0855 53.0645Z" fill="#545BE3"/>
<path d="M42.0855 65.873C41.079 65.873 40.2556 66.6965 40.2556 67.7029C40.2556 68.7094 41.079 69.5328 42.0855 69.5328C43.0919 69.5328 43.9153 68.7094 43.9153 67.7029C43.9153 66.6965 43.0919 65.873 42.0855 65.873Z" fill="#8B92F2"/>
<path d="M42.0855 36.5962C39.048 36.5962 36.5961 39.0481 36.5961 42.0856C36.5961 45.1231 39.048 47.575 42.0855 47.575C45.123 47.575 47.5749 45.1231 47.5749 42.0856C47.5749 39.0481 45.123 36.5962 42.0855 36.5962Z" fill="#472D9F"/>
</g>
<defs>
<clipPath id="clip0_37_120">
<rect width="69.5326" height="69.5326" fill="white"/>
</clipPath>
</defs>
</svg>
